PathFileType	4	(X/Y/Z)	Walk2.trc
DataRate	CameraRate	NumFrames	NumMarkers	Units	OrigDataRate	OrigDataStartFrame	OrigNumFrames
200.000000	200.000000	5	61	mm	200.000000	417	450
Frame#	Times		LFHD		RFHD		CLAV		STRN		LASI		RASI		RACR1		RUA1		RWRU		RCAR		LACR1		LUA1		LFA1		LWRU		LCAR		RTH3		RTH2		RTB1		LTH1		LTH3		LTH2		LTH4		LLFC		LTB1		LTB3		LTB2		LTB4		LToe		RTB4		RWRR		LBHD		RLFC		RMFC		RTB3		RMT5		RToe		RFA1		LWRR		LElbow		RTH4		RMT1		RTB2		RMMAL		LMFC		LPSI		RTH1		RElbow		LElbowM		LMT5		RBHD		RBack		RPSI		RLMAL		RCAL		C7		T10		LMMAL		LMT1		RElbowM		LCAL		LLMAL
			X1	Y1	Z1	X2	Y2	Z2	X3	Y3	Z3	X4	Y4	Z4	X5	Y5	Z5	X6	Y6	Z6	X7	Y7	Z7	X8	Y8	Z8	X9	Y9	Z9	X10	Y10	Z10	X11	Y11	Z11	X12	Y12	Z12	X13	Y13	Z13	X14	Y14	Z14	X15	Y15	Z15	X16	Y16	Z16	X17	Y17	Z17	X18	Y18	Z18	X19	Y19	Z19	X20	Y20	Z20	X21	Y21	Z21	X22	Y22	Z22	X23	Y23	Z23	X24	Y24	Z24	X25	Y25	Z25	X26	Y26	Z26	X27	Y27	Z27	X28	Y28	Z28	X29	Y29	Z29	X30	Y30	Z30	X31	Y31	Z31	X32	Y32	Z32	X33	Y33	Z33	X34	Y34	Z34	X35	Y35	Z35	X36	Y36	Z36	X37	Y37	Z37	X38	Y38	Z38	X39	Y39	Z39	X40	Y40	Z40	X41	Y41	Z41	X42	Y42	Z42	X43	Y43	Z43	X44	Y44	Z44	X45	Y45	Z45	X46	Y46	Z46	X47	Y47	Z47	X48	Y48	Z48	X49	Y49	Z49	X50	Y50	Z50	X51	Y51	Z51	X52	Y52	Z52	X53	Y53	Z53	X54	Y54	Z54	X55	Y55	Z55	X56	Y56	Z56	X57	Y57	Z57	X58	Y58	Z58	X59	Y59	Z59	X60	Y60	Z60	X61	Y61	Z61

417	2.085	1435.4	1573.6	-87.882	1438.3	1577.9	11.147	1356.5	1327.6	-28.33	1386.5	1198.8	-21.84	1354.3	920.34	-137.97	1354.9	931.98	109.87	1272.8	1364.3	135.08	1266.6	1195.1	191.43	1334.7	787.25	222.83	1318	722.54	272.47	1278.9	1379.7	-178.29	1284.5	1209.7	-250.5	1372.3	938.98	-317.67	1474	866.24	-315.63	1474.5	797.63	-352.53	1414.2	609.68	154.61	1429.2	714.22	152.59	1445.7	362.35	101.21	1293.8	750.62	-198.99	1267.7	584.61	-164.74	1334.5	665.14	-158.76	1279.6	666.3	-183.64	1240.1	444.3	-140.53	1262.4	344.71	-69.572	1224.7	179.16	-51.497	1228.9	258.07	-121.16	1240.8	261.5	-61.203	1351.5	23.664	-43.923	1397.7	290.15	92.705	1276.7	785.1	260.05	1281	1550	-108.15	1466.2	473.93	131.46	1465.7	468.9	2.0029	1350.5	219.2	81.794	1322.5	66.562	106.02	1408.3	54.604	72.755	1286.2	905.72	252.63	1416	828.97	-309.55	1292.4	1053	-284.02	1380.1	686.03	170.34	1366.7	66.386	32.164	1355	315.83	128.28	1278.1	158.47	10.744	1207.7	443.22	-10.154	1179.6	973.34	-64.925	1344.6	763.77	187.59	1250.2	1030.4	224.43	1291.3	1028.2	-210.91	1262.1	24.596	-98.988	1287.9	1561.1	38.519	1167.4	1297	38.945	1182.3	965.95	35.605	1248.2	149.19	88.549	1195.8	142.81	39.021	1244.5	1429.6	-31.928	1177.2	1210.9	-25.308	1170.9	94.164	-10.124	1293.2	30.108	-16.14	1225.3	1024.5	149.44	1101	48.958	-48.865	1158.9	72.641	-90.093
418	2.09	1442.8	1573.6	-87.516	1445.5	1577.7	11.529	1363.9	1327.3	-28.358	1393.8	1198.4	-22.017	1361	919.87	-138.13	1362.6	931.55	109.77	1279.9	1363.9	134.93	1272.6	1194.7	191.4	1338.2	786.58	223.93	1320.7	722.11	273.56	1286.6	1379.4	-178.43	1293	1209.5	-250.77	1385.3	940.56	-317.36	1488.9	870.49	-314.02	1491.8	801.78	-350.55	1423.8	610.45	154.64	1437.8	715.13	153.3	1459.8	363.2	101.18	1298.9	750.57	-199.06	1270.9	584.86	-164.71	1338.6	664.58	-158.85	1283.7	666.39	-183.68	1241.8	444.8	-140.69	1263.8	345.03	-69.739	1225.5	179.69	-51.578	1229.7	258.58	-121.26	1241.9	261.96	-61.329	1351.6	23.544	-43.975	1414.5	289.4	92.759	1279.8	784.79	260.5	1288.4	1549.9	-108.03	1477.2	475.27	131.34	1476.3	470.53	2.2377	1369.9	216.85	81.935	1347.2	63.557	106.53	1433.3	54.7	73.226	1290.3	905.4	253.07	1431.8	831.7	-308.85	1302.2	1052.9	-284.5	1388.9	686.31	170.42	1391.5	64.953	32.684	1371.2	313.42	128.67	1299.6	153.61	11.132	1209.7	443.95	-10.137	1186.7	973.21	-64.372	1352.6	763.73	188.06	1255.3	1030.2	224.43	1300.8	1028	-211.56	1262.1	24.644	-98.875	1295.1	1560.6	38.69	1174.7	1296.7	38.509	1189.8	965.71	36.128	1270.1	143.28	89.011	1218	135.13	39.358	1251.9	1429.3	-32.128	1184.6	1210.7	-25.432	1171.4	94.881	-10.001	1293.3	30.09	-16.131	1230.9	1024.3	149.32	1101.2	49.976	-48.494	1159.1	73.43	-89.856
419	2.095	1450.1	1573.6	-87.153	1452.8	1577.5	11.907	1371.3	1326.8	-28.38	1401.1	1197.8	-22.186	1367.7	919.35	-138.32	1370.4	931.01	109.66	1287	1363.4	134.79	1278.6	1194.4	191.38	1341.8	785.9	225.05	1323.4	721.67	274.66	1294.3	1379	-178.57	1301.5	1209.2	-251.02	1398.2	942.15	-317.02	1503.6	874.77	-312.31	1508.9	806.05	-348.48	1433.2	611.07	154.63	1446.3	715.87	153.99	1473.8	364	101.09	1303.9	750.48	-199.17	1274.1	585.09	-164.69	1342.7	664.03	-159.01	1287.9	666.46	-183.76	1243.6	445.28	-140.84	1265.3	345.32	-69.9	1226.3	180.19	-51.669	1230.7	259.07	-121.37	1243.1	262.39	-61.46	1351.7	23.436	-44.024	1431.2	288.65	92.778	1283	784.45	260.94	1295.9	1549.6	-107.93	1488	476.44	131.17	1486.5	471.97	2.4416	1389.2	214.56	82.065	1372.1	60.775	107.06	1458.4	55.069	73.679	1294.4	905.03	253.53	1447.4	834.48	-308.12	1312.1	1052.7	-284.97	1397.5	686.47	170.51	1416.4	63.761	33.205	1387.4	310.95	129.07	1321.3	148.83	11.55	1211.9	444.65	-10.113	1193.7	973.02	-63.752	1360.6	763.56	188.53	1260.5	1029.9	224.42	1310.3	1027.6	-212.24	1262.1	24.687	-98.768	1302.4	1560	38.843	1182	1296.3	38.097	1197.2	965.39	36.71	1292.3	137.44	89.522	1240.4	127.53	39.757	1259.4	1429	-32.324	1192	1210.4	-25.525	1171.9	95.601	-9.8975	1293.4	30.067	-16.122	1236.6	1023.9	149.19	1101.4	51.025	-48.15	1159.2	74.228	-89.641
420	2.1	1457.5	1573.5	-86.794	1460	1577.2	12.28	1378.7	1326.3	-28.397	1408.5	1197.1	-22.343	1374.3	918.79	-138.53	1378.2	930.37	109.54	1294.1	1362.9	134.65	1284.7	1194	191.37	1345.5	785.18	226.17	1326.2	721.2	275.75	1302	1378.6	-178.71	1310.1	1208.8	-251.26	1411.1	943.75	-316.63	1518.2	879.06	-310.53	1525.8	810.42	-346.33	1442.5	611.53	154.56	1454.7	716.43	154.65	1487.6	364.76	100.95	1308.8	750.37	-199.3	1277.4	585.28	-164.69	1346.8	663.48	-159.25	1292	666.52	-183.85	1245.6	445.73	-140.99	1266.9	345.56	-70.055	1227.1	180.68	-51.769	1231.7	259.54	-121.49	1244.3	262.79	-61.594	1351.8	23.341	-44.071	1447.8	287.93	92.771	1286.2	784.08	261.38	1303.4	1549.3	-107.85	1498.5	477.44	130.97	1496.3	473.23	2.6156	1408.7	212.36	82.189	1397.1	58.253	107.61	1483.5	55.741	74.107	1298.6	904.64	253.98	1462.8	837.3	-307.38	1321.9	1052.5	-285.44	1406	686.51	170.63	1441.3	62.843	33.718	1403.7	308.42	129.47	1343.2	144.17	11.997	1214.3	445.31	-10.082	1200.7	972.75	-63.064	1368.5	763.27	189.02	1265.6	1029.6	224.42	1319.8	1027.1	-212.93	1262	24.725	-98.667	1309.7	1559.3	38.98	1189.3	1295.8	37.71	1204.7	965.01	37.351	1314.7	131.72	90.073	1263.2	120.03	40.214	1266.8	1428.6	-32.515	1199.4	1210.1	-25.587	1172.4	96.321	-9.8161	1293.5	30.041	-16.113	1242.3	1023.5	149.07	1101.6	52.104	-47.838	1159.4	75.034	-89.449
421	2.105	1464.9	1573.5	-86.438	1467.2	1576.9	12.648	1386.2	1325.8	-28.408	1415.9	1196.4	-22.486	1380.9	918.17	-138.75	1386	929.64	109.41	1301.4	1362.4	134.52	1290.8	1193.5	191.39	1349.2	784.45	227.3	1329	720.72	276.85	1309.8	1378	-178.85	1318.6	1208.3	-251.47	1423.8	945.37	-316.19	1532.5	883.37	-308.65	1542.6	814.89	-344.11	1451.5	611.84	154.44	1463.1	716.81	155.29	1501.1	365.48	100.78	1313.7	750.24	-199.46	1280.7	585.45	-164.7	1350.9	662.93	-159.56	1296.2	666.56	-183.95	1247.7	446.15	-141.13	1268.7	345.77	-70.201	1228.1	181.14	-51.878	1232.8	259.99	-121.61	1245.6	263.16	-61.733	1351.8	23.26	-44.114	1464.4	287.25	92.743	1289.5	783.68	261.81	1310.9	1548.9	-107.78	1508.7	478.27	130.74	1505.8	474.27	2.7616	1428.1	210.28	82.31	1422.4	56.027	108.15	1508.6	56.743	74.5	1302.8	904.22	254.44	1478.1	840.17	-306.61	1331.8	1052.3	-285.89	1414.4	686.43	170.75	1466.4	62.227	34.213	1419.9	305.88	129.88	1365.3	139.67	12.471	1217	445.93	-10.044	1207.8	972.42	-62.31	1376.5	762.87	189.53	1270.9	1029.3	224.43	1329.3	1026.6	-213.63	1262	24.757	-98.572	1316.9	1558.6	39.101	1196.8	1295.3	37.351	1212.2	964.55	38.05	1337.4	126.16	90.659	1286.3	112.68	40.729	1274.4	1428.1	-32.699	1206.8	1209.7	-25.619	1172.9	97.042	-9.7587	1293.6	30.013	-16.106	1248.1	1023.1	148.96	1101.8	53.212	-47.557	1159.6	75.847	-89.286
